<mxfile host="app.diagrams.net" modified="2023-12-12T14:00:06.592Z" agent="Mozilla/5.0 (Windows NT 10.0; Win64; x64) AppleWebKit/537.36 (KHTML, like Gecko) Chrome/120.0.0.0 Safari/537.36" etag="i71ojnrwqmC5dj5DNVJd" version="22.1.7" type="github">
  <diagram name="Page-1" id="OrWFvQ6UOOr_lnKIEQu-">
    <mxGraphModel dx="1218" dy="529" grid="1" gridSize="10" guides="1" tooltips="1" connect="1" arrows="1" fold="1" page="1" pageScale="1" pageWidth="850" pageHeight="1100" math="0" shadow="0">
      <root>
        <mxCell id="0" />
        <mxCell id="1" parent="0" />
        <mxCell id="JVFcnxBrBhBk1abQde2z-1" value="&lt;b&gt;Spotify Database Design&lt;/b&gt;" style="rounded=1;whiteSpace=wrap;html=1;" vertex="1" parent="1">
          <mxGeometry x="40" y="20" width="120" height="60" as="geometry" />
        </mxCell>
      </root>
    </mxGraphModel>
  </diagram>
</mxfile>
